<?xml version="1.0" standalone="no"?><!DOCTYPE svg PUBLIC "-//W3C//DTD SVG 1.1//EN" "http://www.w3.org/Graphics/SVG/1.1/DTD/svg11.dtd"><svg t="1626401287620" class="icon" viewBox="0 0 1024 1024" version="1.1" xmlns="http://www.w3.org/2000/svg" p-id="1034" xmlns:xlink="http://www.w3.org/1999/xlink" width="48" height="48"><defs><style type="text/css"></style></defs><path d="M632.6784 883.456c11.5712-54.8864 59.136-96.1536 115.0976-99.9424 21.0944-1.4336 41.216 2.304 59.136 10.0864 21.248 9.216 46.1824 2.3552 60.2112-16.128a440.63232 440.63232 0 0 0 54.272-93.2352c9.472-22.0672 1.6896-47.4112-17.6128-61.696-31.1808-23.0912-51.4048-60.1088-51.4048-101.888 0-43.9808 22.4256-82.7392 56.4736-105.4208 19.7632-13.1584 28.2624-38.0928 19.9168-60.3136a443.2384 443.2384 0 0 0-58.7776-107.776c-14.1312-19.0464-40.0384-25.7536-61.5424-15.7184a126.73024 126.73024 0 0 1-61.696 11.5712c-60.1088-3.7888-110.08-50.6368-117.5552-110.4384-0.4608-3.6352-0.768-7.2704-0.8704-10.8544-0.9728-24.32-19.4048-44.1344-43.4176-48.0256-22.9376-3.6864-46.3872-5.632-70.3488-5.632-26.7776 0-52.9408 2.4064-78.3872 7.0144-23.0912 4.1472-40.5504 23.808-41.6256 47.2576-0.0512 1.6896-0.2048 3.328-0.3072 5.0176-5.1712 61.2352-54.9376 110.7968-116.224 115.5072-21.504 1.6384-41.984-2.048-60.2112-9.984-21.4528-9.2672-46.6944-2.2528-60.4672 16.64a439.7312 439.7312 0 0 0-58.2144 108.4416c-7.936 21.6576-0.0512 45.9264 18.7904 59.2384 32.4608 22.9376 53.6576 60.7232 53.6576 103.4752 0 40.5504-19.0976 76.6464-48.7424 99.84C104.3968 634.88 97.28 659.456 106.24 680.96a441.84576 441.84576 0 0 0 51.2 90.6752c13.824 18.8928 39.0656 25.9584 60.5696 16.6912 18.0736-7.7824 38.2976-11.4688 59.5456-9.8816 58.9312 4.352 107.8272 50.2272 115.8656 108.8 0.512 3.8912 0.8704 7.7312 1.0752 11.52 1.1264 23.3472 18.5856 42.9056 41.6256 47.0528 25.4464 4.608 51.6096 7.0144 78.3872 7.0144 25.1392 0 49.8176-2.1504 73.7792-6.1952 22.784-3.84 40.2432-22.8352 41.9328-45.8752 0.4096-5.7344 1.2288-11.4688 2.4576-17.3056z" fill="#025FFC" p-id="1035"></path><path d="M619.0592 827.4944c10.24-48.5888 52.3264-85.0944 101.888-88.4736 18.688-1.28 36.4544 2.048 52.3776 8.96 18.7904 8.1408 40.9088 2.048 53.2992-14.2848a391.05024 391.05024 0 0 0 48.0256-82.5344c8.3456-19.5584 1.4848-41.9328-15.616-54.5792-27.5968-20.4288-45.5168-53.1968-45.5168-90.1632 0-38.9632 19.8656-73.216 49.9712-93.3376 17.4592-11.6736 25.0368-33.7408 17.664-53.4016a388.95104 388.95104 0 0 0-52.0704-95.3856c-12.544-16.8448-35.4304-22.8352-54.4768-13.9264-16.4352 7.68-35.0208 11.4688-54.5792 10.24-53.1968-3.328-97.4336-44.8512-104.0384-97.7408a102.912 102.912 0 0 1-0.768-9.6256c-0.8704-21.504-17.2032-39.0656-38.4512-42.496a390.0928 390.0928 0 0 0-62.3104-5.0176c-23.7056 0-46.848 2.1504-69.376 6.1952-20.4288 3.6864-35.8912 21.0944-36.8128 41.8304-0.0512 1.4848-0.1536 2.9696-0.3072 4.4544-4.5568 54.2208-48.64 98.0992-102.8608 102.2464-19.0464 1.4848-37.1712-1.8432-53.2992-8.8064-18.9952-8.192-41.3184-1.9968-53.5552 14.6944-21.3504 29.184-38.7584 61.44-51.456 96-7.0656 19.2-0.0512 40.6528 16.64 52.4288 28.7232 20.2752 47.4624 53.76 47.4624 91.5968 0 35.8912-16.896 67.84-43.1616 88.3712-16.2816 12.6976-22.6304 34.4576-14.6432 53.504a392.03328 392.03328 0 0 0 45.312 80.2304c12.2368 16.6912 34.56 22.9376 53.6064 14.7968 15.9744-6.8608 33.8944-10.1376 52.736-8.7552 52.1728 3.84 95.4368 44.4416 102.6048 96.3072 0.4608 3.4304 0.768 6.8096 0.9216 10.1888 0.9728 20.6848 16.4352 37.9904 36.8128 41.6256 22.528 4.0448 45.7216 6.1952 69.376 6.1952 22.272 0 44.0832-1.8944 65.3312-5.4784 20.1728-3.4304 35.6352-20.224 37.12-40.6016 0.3584-5.0176 1.0752-10.0864 2.1504-15.2576z" fill="#0C7AF2" p-id="1036"></path><path d="M607.1296 779.5712c9.1136-43.0592 46.3872-75.4176 90.2656-78.3872 16.5376-1.1264 32.3072 1.8432 46.3872 7.936 16.6912 7.2192 36.2496 1.8432 47.2064-12.6464 16.9984-22.4256 31.3856-46.9504 42.5984-73.1648 7.424-17.3056 1.3312-37.1712-13.824-48.384-24.4736-18.0736-40.3456-47.1552-40.3456-79.9232 0-34.5088 17.6128-64.9216 44.288-82.7392 15.5136-10.3424 22.1696-29.9008 15.616-47.3088a346.33216 346.33216 0 0 0-46.1312-84.5824c-11.1104-14.9504-31.3856-20.224-48.2816-12.3392a98.61632 98.61632 0 0 1-48.384 9.0624c-47.1552-2.9696-86.3744-39.7312-92.2112-86.6304-0.3584-2.8672-0.5632-5.6832-0.7168-8.4992-0.768-19.0976-15.2064-34.6112-34.0992-37.6832a344.1152 344.1152 0 0 0-55.1936-4.4032c-20.992 0-41.5232 1.8944-61.4912 5.4784-18.1248 3.2768-31.7952 18.688-32.6656 37.0688-0.0512 1.3312-0.1536 2.6112-0.256 3.9424-4.0448 48.0768-43.1104 86.9376-91.1872 90.624-16.8448 1.28-32.9216-1.6384-47.2576-7.8336-16.8448-7.2704-36.6592-1.7408-47.4624 13.056a346.24512 346.24512 0 0 0-45.6192 85.0944c-6.2464 16.9984-0.0512 36.0448 14.7456 46.4896 25.4464 17.9712 42.0864 47.616 42.0864 81.2032 0 31.8464-14.9504 60.16-38.2464 78.336-14.4384 11.264-20.0192 30.5152-13.0048 47.4112 10.5984 25.3952 24.1152 49.2544 40.1408 71.1168 10.8544 14.7968 30.6176 20.3264 47.5136 13.1072a99.4304 99.4304 0 0 1 46.7456-7.7312c46.2336 3.4304 84.5824 39.424 90.9312 85.3504 0.4096 3.0208 0.7168 6.0416 0.8192 9.0624 0.8704 18.3296 14.592 33.6384 32.6656 36.9152a347.69408 347.69408 0 0 0 119.3984 0.6144c17.8688-3.0208 31.5904-17.92 32.8704-35.9936 0.4608-4.5056 1.1264-9.0624 2.0992-13.6192z" fill="#3489FA" p-id="1037"></path><path d="M598.5792 733.5424c8.2432-37.8368 42.1376-66.2528 82.0224-68.864 15.0528-0.9728 29.3888 1.5872 42.1888 6.9632 15.1552 6.3488 32.9216 1.5872 42.9056-11.1104 15.4624-19.712 28.5184-41.2672 38.7072-64.256 6.7584-15.2064 1.2288-32.6656-12.544-42.496-22.2208-15.9232-36.6592-41.4208-36.6592-70.2464 0-30.3104 15.9744-57.0368 40.2432-72.6528 14.08-9.0624 20.1728-26.2656 14.2336-41.5744-10.3936-26.7776-24.576-51.712-41.9328-74.2912-10.0864-13.1584-28.5184-17.7664-43.8784-10.8544a92.46208 92.46208 0 0 1-43.9808 7.9872c-42.8544-2.6112-78.4896-34.9184-83.8144-76.1344-0.3072-2.5088-0.512-5.0176-0.6144-7.4752-0.7168-16.7424-13.824-30.4128-30.976-33.0752-16.3328-2.56-33.0752-3.8912-50.176-3.8912-19.0976 0-37.7344 1.6896-55.8592 4.8128-16.4864 2.8672-28.928 16.4352-29.6448 32.5632-0.0512 1.1264-0.1536 2.304-0.256 3.4816-3.6864 42.24-39.168 76.3904-82.8416 79.616-15.3088 1.1264-29.9008-1.4336-42.9568-6.8608-15.3088-6.4-33.28-1.536-43.1104 11.4688-17.2032 22.7328-31.232 47.872-41.4208 74.752-5.6832 14.9504-0.0512 31.6416 13.3632 40.8064 23.1424 15.8208 38.2464 41.8304 38.2464 71.3216 0 27.9552-13.6192 52.8384-34.7648 68.8128-13.1072 9.8816-18.2272 26.8288-11.776 41.6768 9.6256 22.272 21.9136 43.264 36.5056 62.464 9.8304 13.0048 27.8528 17.8688 43.1616 11.52 12.9024-5.376 27.2896-7.8848 42.4448-6.8096 42.0352 3.0208 76.8512 34.6112 82.6368 75.008 0.3584 2.6624 0.6144 5.3248 0.768 7.936 0.768 16.128 13.2608 29.5424 29.6448 32.4096 18.1248 3.1744 36.8128 4.8128 55.9104 4.8128 17.92 0 35.4816-1.4848 52.5824-4.3008 16.2304-2.6624 28.672-15.7696 29.9008-31.6416 0.3072-3.84 0.8704-7.8336 1.7408-11.8784z" fill="#3F91FC" p-id="1038"></path><path d="M514.5088 693.4528c-100.9152 0-182.9888-82.1248-182.9888-182.9888 0-100.9152 82.1248-183.04 182.9888-183.04 100.9152 0 183.04 82.1248 183.04 183.04-0.0512 100.9152-82.1248 182.9888-183.04 182.9888z m0-253.3888c-38.8096 0-70.3488 31.5904-70.3488 70.4s31.5904 70.3488 70.3488 70.3488c38.8096 0 70.4-31.5904 70.4-70.3488-0.0512-38.8096-31.5904-70.4-70.4-70.4z" fill="#025FFC" p-id="1039"></path><path d="M514.5088 721.6128c-116.4288 0-211.1488-94.72-211.1488-211.1488s94.72-211.2 211.1488-211.2 211.2 94.72 211.2 211.2-94.7712 211.1488-211.2 211.1488z m0-366.0288c-85.4016 0-154.8288 69.4784-154.8288 154.88s69.4784 154.8288 154.8288 154.8288 154.88-69.4784 154.88-154.8288-69.4784-154.88-154.88-154.88z m0 253.3888c-54.3232 0-98.5088-44.1856-98.5088-98.5088s44.1856-98.56 98.5088-98.56 98.56 44.1856 98.56 98.56-44.2368 98.5088-98.56 98.5088z m0-140.7488c-23.296 0-42.1888 18.944-42.1888 42.24s18.944 42.1888 42.1888 42.1888 42.24-18.944 42.24-42.1888-18.9952-42.24-42.24-42.24z" fill="#025FFC" p-id="1040"></path><path d="M514.5088 693.4528c-100.9152 0-182.9888-82.1248-182.9888-182.9888 0-100.9152 82.1248-183.04 182.9888-183.04 100.9152 0 183.04 82.1248 183.04 183.04-0.0512 100.9152-82.1248 182.9888-183.04 182.9888z m0-253.3888c-38.8096 0-70.3488 31.5904-70.3488 70.4s31.5904 70.3488 70.3488 70.3488c38.8096 0 70.4-31.5904 70.4-70.3488-0.0512-38.8096-31.5904-70.4-70.4-70.4z" fill="#F7BC00" p-id="1041"></path><path d="M514.5088 670.4128c-88.2176 0-159.9488-71.7824-159.9488-159.9488s71.7824-160 159.9488-160 160 71.7824 160 160-71.7824 159.9488-160 159.9488z m0-253.3888c-51.5072 0-93.3888 41.8816-93.3888 93.44 0 51.5072 41.8816 93.3888 93.3888 93.3888 51.5072 0 93.44-41.8816 93.44-93.3888-0.0512-51.5072-41.9328-93.44-93.44-93.44z" fill="#FFD029" p-id="1042"></path><path d="M514.5088 652.4928c-78.336 0-142.0288-63.744-142.0288-142.0288 0-78.336 63.744-142.08 142.0288-142.08 78.336 0 142.08 63.744 142.08 142.08-0.0512 78.2848-63.744 142.0288-142.08 142.0288z m0-253.3888c-61.3888 0-111.3088 49.92-111.3088 111.36s49.92 111.3088 111.3088 111.3088 111.36-49.92 111.36-111.3088-49.9712-111.36-111.36-111.36z" fill="#FFE576" p-id="1043"></path></svg>
